<svg width="347" height="132" viewBox="0 0 347 132" fill="none" xmlns="http://www.w3.org/2000/svg">
<path d="M166.144 80.3552C163.421 80.3552 160.902 79.8605 158.588 78.871C156.274 77.8816 154.249 76.4998 152.513 74.7257C150.778 72.9516 149.416 70.8703 148.429 68.4821C147.476 66.0938 147 63.4838 147 60.652C147 57.8202 147.459 55.2102 148.378 52.8219C149.331 50.3995 150.659 48.3183 152.36 46.5783C154.096 44.8042 156.121 43.4394 158.435 42.4841C160.749 41.4947 163.268 41 165.99 41C168.713 41 171.146 41.4606 173.29 42.3818C175.469 43.303 177.306 44.5312 178.804 46.0665C180.301 47.5677 181.373 49.2224 182.02 51.0307L175.843 53.999C175.128 52.0201 173.92 50.4166 172.218 49.1883C170.517 47.9601 168.441 47.346 165.99 47.346C163.608 47.346 161.498 47.9089 159.66 49.0348C157.857 50.1607 156.444 51.7131 155.423 53.6919C154.436 55.6708 153.943 57.9908 153.943 60.652C153.943 63.3132 154.453 65.6503 155.474 67.6633C156.529 69.6421 157.976 71.1945 159.813 72.3204C161.651 73.4463 163.761 74.0092 166.144 74.0092C168.083 74.0092 169.87 73.6339 171.504 72.8833C173.137 72.0986 174.448 71.0068 175.435 69.608C176.422 68.175 176.915 66.4862 176.915 64.5415V61.6244L180.08 64.3879H165.99V58.5026H183.858V62.3408C183.858 65.275 183.364 67.868 182.377 70.1198C181.39 72.3715 180.046 74.2651 178.344 75.8004C176.677 77.3016 174.788 78.4446 172.678 79.2293C170.568 79.9799 168.39 80.3552 166.144 80.3552Z" fill="#727686"/>
<path d="M188.79 79.741V51.9007H195.069V58.0931L194.559 57.172C195.205 55.0908 196.209 53.6407 197.571 52.8219C198.966 52.0031 200.633 51.5937 202.573 51.5937H204.207V57.5302H201.808C199.902 57.5302 198.37 58.1273 197.213 59.3214C196.056 60.4814 195.477 62.1191 195.477 64.2344V79.741H188.79Z" fill="#727686"/>
<path d="M221.463 80.3552C218.74 80.3552 216.256 79.724 214.01 78.4616C211.798 77.1992 210.028 75.4763 208.701 73.2927C207.407 71.1092 206.761 68.6186 206.761 65.8209C206.761 63.0232 207.407 60.5326 208.701 58.349C210.028 56.1655 211.798 54.4425 214.01 53.1801C216.222 51.9178 218.706 51.2866 221.463 51.2866C224.186 51.2866 226.653 51.9178 228.865 53.1801C231.077 54.4425 232.83 56.1655 234.123 58.349C235.45 60.4985 236.114 62.9891 236.114 65.8209C236.114 68.6186 235.45 71.1092 234.123 73.2927C232.796 75.4763 231.026 77.1992 228.814 78.4616C226.602 79.724 224.151 80.3552 221.463 80.3552ZM221.463 74.2139C222.96 74.2139 224.271 73.8557 225.394 73.1392C226.551 72.4227 227.453 71.4333 228.099 70.1709C228.78 68.8744 229.12 67.4244 229.12 65.8209C229.12 64.1832 228.78 62.7503 228.099 61.522C227.453 60.2596 226.551 59.2702 225.394 58.5537C224.271 57.8031 222.96 57.4278 221.463 57.4278C219.931 57.4278 218.587 57.8031 217.43 58.5537C216.273 59.2702 215.354 60.2596 214.673 61.522C214.027 62.7503 213.703 64.1832 213.703 65.8209C213.703 67.4244 214.027 68.8744 214.673 70.1709C215.354 71.4333 216.273 72.4227 217.43 73.1392C218.587 73.8557 219.931 74.2139 221.463 74.2139Z" fill="#727686"/>
<path d="M251.089 80.3552C248.945 80.3552 247.073 79.8775 245.474 78.9222C243.908 77.9669 242.7 76.6363 241.849 74.9304C241.032 73.2245 240.624 71.2286 240.624 68.9427V51.9007H247.311V68.3797C247.311 69.5397 247.533 70.5633 247.975 71.4504C248.452 72.3033 249.115 72.9857 249.966 73.4974C250.851 73.9751 251.838 74.2139 252.927 74.2139C254.016 74.2139 254.986 73.9751 255.837 73.4974C256.688 72.9857 257.351 72.2863 257.828 71.3992C258.304 70.5121 258.542 69.4545 258.542 68.2262V51.9007H265.23V79.741H258.9V74.2651L259.461 75.2375C258.815 76.9434 257.743 78.2228 256.245 79.0757C254.782 79.9287 253.063 80.3552 251.089 80.3552Z" fill="#727686"/>
<path d="M271.446 89.9765V51.9007H277.725V57.4278L277.113 56.0461C278.066 54.5449 279.359 53.3849 280.993 52.566C282.626 51.7131 284.515 51.2866 286.659 51.2866C289.28 51.2866 291.645 51.9348 293.755 53.2313C295.865 54.5278 297.533 56.2678 298.758 58.4514C300.017 60.6349 300.647 63.0914 300.647 65.8209C300.647 68.5162 300.034 70.9727 298.809 73.1904C297.584 75.4081 295.916 77.1651 293.806 78.4616C291.696 79.724 289.297 80.3552 286.608 80.3552C284.6 80.3552 282.745 79.9628 281.044 79.1781C279.376 78.3593 278.049 77.1992 277.062 75.6981L278.134 74.3675V89.9765H271.446ZM285.842 74.2139C287.374 74.2139 288.735 73.8557 289.926 73.1392C291.117 72.4227 292.036 71.4333 292.683 70.1709C293.364 68.9086 293.704 67.4585 293.704 65.8209C293.704 64.1832 293.364 62.7503 292.683 61.522C292.036 60.2596 291.117 59.2702 289.926 58.5537C288.735 57.8031 287.374 57.4278 285.842 57.4278C284.379 57.4278 283.052 57.7861 281.86 58.5026C280.703 59.219 279.784 60.2255 279.104 61.522C278.457 62.7844 278.134 64.2173 278.134 65.8209C278.134 67.4585 278.457 68.9086 279.104 70.1709C279.784 71.4333 280.703 72.4227 281.86 73.1392C283.052 73.8557 284.379 74.2139 285.842 74.2139Z" fill="#727686"/>
<path d="M307.124 91C306.579 91 306.017 90.9488 305.439 90.8465C304.894 90.7782 304.35 90.6418 303.805 90.437V86.8547C304.146 86.8888 304.571 86.94 305.082 87.0082C305.626 87.1105 306.171 87.1617 306.715 87.1617C308.383 87.1617 309.659 86.8035 310.544 86.087C311.429 85.4046 312.297 84.074 313.147 82.0952L314.883 78.001L314.781 81.3787L303.193 52.3101H307.328L316.823 76.3122H315.751L325.195 52.3101H329.432L316.925 83.2211C316.381 84.5517 315.683 85.8141 314.832 87.0082C314.015 88.2023 312.977 89.1576 311.718 89.8741C310.459 90.6247 308.927 91 307.124 91Z" fill="#727686"/>
<path d="M344.396 80.0481C341.946 80.0481 340.057 79.3316 338.73 77.8987C337.403 76.4657 336.739 74.4186 336.739 71.7574V56.1484H331.685V52.3101H332.961C334.118 52.3101 335.037 51.9348 335.718 51.1842C336.399 50.3995 336.739 49.4272 336.739 48.2671V45.9642H340.568V52.3101H346.592V56.1484H340.568V71.7574C340.568 72.6786 340.704 73.4974 340.976 74.2139C341.248 74.8963 341.708 75.4422 342.354 75.8516C343.035 76.261 343.937 76.4657 345.06 76.4657C345.332 76.4657 345.656 76.4487 346.03 76.4145C346.404 76.3804 346.728 76.3463 347 76.3122V79.741C346.592 79.8434 346.132 79.9116 345.622 79.9458C345.111 80.014 344.703 80.0481 344.396 80.0481Z" fill="#727686"/>
<path d="M4.5283 1.213C7.33042 -0.404332 10.7828 -0.404332 13.5849 1.213L47.2152 20.6237C42.3821 24.3939 39.1193 30.0824 38.5721 36.5443L18.1132 24.7358V97.7825C16.6501 97.4856 15.1357 97.3298 13.5849 97.3298C8.48782 97.3298 3.78412 99.0135 0 101.855V9.05394C0 5.81928 1.72618 2.83033 4.5283 1.213Z" fill="#727686"/>
<path d="M74.0888 57.0438L92.8302 67.861L29.8459 104.214C33.7954 108.289 36.2264 113.843 36.2264 119.965C36.2264 120.47 36.2098 120.972 36.1772 121.469L115.472 75.7019C118.274 74.0846 120 71.0956 120 67.861C120 64.6263 118.274 61.6374 115.472 60.02L83.56 41.6012C82.6792 47.9834 79.1368 53.5162 74.0888 57.0438Z" fill="#727686"/>
<path d="M74.717 38.4792C74.717 45.9798 68.6348 52.0601 61.1321 52.0601C53.6293 52.0601 47.5472 45.9798 47.5472 38.4792C47.5472 30.9787 53.6293 24.8983 61.1321 24.8983C68.6348 24.8983 74.717 30.9787 74.717 38.4792Z" fill="#727686"/>
<path d="M27.1698 117.701C27.1698 125.202 21.0876 131.282 13.5849 131.282C6.08217 131.282 0 125.202 0 117.701C0 110.201 6.08217 104.12 13.5849 104.12C21.0876 104.12 27.1698 110.201 27.1698 117.701Z" fill="#727686"/>
</svg>
