<svg width="324" height="320" viewBox="0 0 324 320" fill="none" xmlns="http://www.w3.org/2000/svg">
<path d="M152.59 236.36C148.37 236.19 146.51 236.61 147.16 241.07C147.81 245.53 148.01 248.97 148.01 248.97C148.01 248.97 155.52 249.19 159.01 247.24C162.5 245.29 158.93 236.61 152.59 236.36Z" fill="#6275CE"/>
<path opacity="0.5" d="M152.59 236.36C148.37 236.19 146.51 236.61 147.16 241.07C147.81 245.53 148.01 248.97 148.01 248.97C148.01 248.97 155.52 249.19 159.01 247.24C162.5 245.29 158.93 236.61 152.59 236.36Z" fill="black"/>
<path d="M153.26 255.52C152.985 255.518 152.71 255.491 152.44 255.44C151.333 255.22 150.359 254.57 149.731 253.633C149.103 252.695 148.872 251.547 149.09 250.44C150.18 244.9 151.26 240.62 152.22 236.85C153.67 231.603 154.723 226.255 155.37 220.85C156.167 212.459 154.358 204.026 150.19 196.7C149.905 196.221 149.718 195.69 149.639 195.138C149.56 194.587 149.59 194.025 149.728 193.485C149.866 192.945 150.109 192.437 150.443 191.991C150.777 191.545 151.195 191.169 151.675 190.885C152.154 190.601 152.685 190.414 153.236 190.334C153.788 190.255 154.35 190.285 154.89 190.423C155.43 190.561 155.937 190.804 156.383 191.138C156.83 191.472 157.205 191.891 157.49 192.37C162.607 201.272 164.817 211.551 163.81 221.77C163.129 227.561 162.006 233.291 160.45 238.91C159.53 242.58 158.45 246.74 157.45 252.06C157.265 253.035 156.745 253.915 155.98 254.547C155.215 255.179 154.252 255.523 153.26 255.52V255.52Z" fill="#455A64"/>
<path d="M143.1 261.26C142.902 262.078 142.902 262.932 143.1 263.75C143.69 264.85 146.96 266.2 148.68 266.91C151.058 267.825 152.996 269.614 154.1 271.91C156.02 275.42 159.52 277.79 163.43 279.28C168.678 281.124 174.362 281.33 179.73 279.87C186.42 278.2 186.73 274.17 186.73 274.17C186.73 274.17 186.83 270.39 185.11 269.91C183.39 269.43 143.1 261.26 143.1 261.26Z" fill="#455A64"/>
<path d="M145.8 247.22C145.61 248.41 145.339 249.586 144.99 250.74C143.99 253.91 142.44 257.18 143.1 261.26C144.2 263.26 146.5 263.96 148.22 264.72C150.53 265.72 152.22 266.43 153.85 268.43C156.85 272.02 159.66 276.56 168.64 277.73C177.62 278.9 184.16 275.63 185.64 272.99C187.12 270.35 185.46 268.08 179.57 265.4C176.57 264.03 169.76 258.4 168.98 257.68C168.258 256.945 167.615 256.138 167.06 255.27C165.822 253.474 165.002 251.424 164.66 249.27C164.396 246.991 164.508 244.683 164.99 242.44C165.09 241.92 165.35 241.38 165.13 240.91C164.56 239.65 162.59 239.98 161.5 240.07C159.87 240.237 158.253 240.514 156.66 240.9C156.132 240.962 155.632 241.174 155.22 241.51C154.892 241.906 154.675 242.382 154.59 242.89C154.38 243.64 154.16 244.39 153.92 245.12C153.867 245.385 153.761 245.638 153.61 245.863C153.459 246.087 153.266 246.28 153.04 246.43C152.789 246.527 152.514 246.545 152.253 246.48C151.992 246.416 151.757 246.273 151.58 246.07C151.239 245.659 151.045 245.144 151.03 244.61C151.03 244.07 151.03 243.54 151.09 243.01C151.147 242.499 151.046 241.982 150.8 241.53C150.21 240.6 148.72 240.45 148.34 239.42C148.258 239.136 148.257 238.835 148.336 238.551C148.416 238.267 148.573 238.01 148.79 237.81C149.244 237.426 149.807 237.195 150.4 237.15C150.983 237.11 151.567 237.11 152.15 237.15L152.47 235.91C151.085 235.707 149.67 235.887 148.38 236.43C147.566 236.774 146.903 237.398 146.51 238.19C146.16 239.176 146.107 240.244 146.36 241.26C146.61 243.6 146.18 244.88 145.8 247.22Z" fill="#6275CE"/>
<path opacity="0.35" d="M145.8 247.22C145.61 248.41 145.339 249.586 144.99 250.74C143.99 253.91 142.44 257.18 143.1 261.26C144.2 263.26 146.5 263.96 148.22 264.72C150.53 265.72 152.22 266.43 153.85 268.43C156.85 272.02 159.66 276.56 168.64 277.73C177.62 278.9 184.16 275.63 185.64 272.99C187.12 270.35 185.46 268.08 179.57 265.4C176.57 264.03 169.76 258.4 168.98 257.68C168.258 256.945 167.615 256.138 167.06 255.27C165.822 253.474 165.002 251.424 164.66 249.27C164.396 246.991 164.508 244.683 164.99 242.44C165.09 241.92 165.35 241.38 165.13 240.91C164.56 239.65 162.59 239.98 161.5 240.07C159.87 240.237 158.253 240.514 156.66 240.9C156.132 240.962 155.632 241.174 155.22 241.51C154.892 241.906 154.675 242.382 154.59 242.89C154.38 243.64 154.16 244.39 153.92 245.12C153.867 245.385 153.761 245.638 153.61 245.863C153.459 246.087 153.266 246.28 153.04 246.43C152.789 246.527 152.514 246.545 152.253 246.48C151.992 246.416 151.757 246.273 151.58 246.07C151.239 245.659 151.045 245.144 151.03 244.61C151.03 244.07 151.03 243.54 151.09 243.01C151.147 242.499 151.046 241.982 150.8 241.53C150.21 240.6 148.72 240.45 148.34 239.42C148.258 239.136 148.257 238.835 148.336 238.551C148.416 238.267 148.573 238.01 148.79 237.81C149.244 237.426 149.807 237.195 150.4 237.15C150.983 237.11 151.567 237.11 152.15 237.15L152.47 235.91C151.085 235.707 149.67 235.887 148.38 236.43C147.566 236.774 146.903 237.398 146.51 238.19C146.16 239.176 146.107 240.244 146.36 241.26C146.61 243.6 146.18 244.88 145.8 247.22Z" fill="black"/>
<path d="M162.68 276.17C162.672 274.082 163.224 272.031 164.279 270.23C165.335 268.428 166.855 266.943 168.68 265.93C175.13 262.07 179.34 264 181.49 265.33C184.04 266.92 187.77 270.33 185.83 273.15C183.74 276.15 180.17 277.78 173.36 278.32C166.55 278.86 162.68 276.17 162.68 276.17Z" fill="#FAFAFA"/>
<path d="M153.78 253C153.899 253.013 154.019 252.997 154.131 252.954C154.242 252.91 154.341 252.84 154.42 252.75C155.31 251.8 160.72 248.53 164.81 250.21C164.91 250.06 165.08 249.06 164.59 248.75C162.601 248.308 160.535 248.35 158.565 248.872C156.595 249.394 154.779 250.381 153.27 251.75C153.149 251.893 153.089 252.078 153.102 252.264C153.115 252.451 153.201 252.625 153.34 252.75C153.457 252.877 153.611 252.965 153.78 253V253Z" fill="#FAFAFA"/>
<path d="M166.53 254.49C166.531 254.203 166.472 253.92 166.359 253.656C166.245 253.393 166.079 253.156 165.87 252.96C161.21 252.3 156.53 255.23 155.5 256.34C155.38 256.484 155.322 256.67 155.337 256.856C155.352 257.043 155.439 257.216 155.58 257.34C155.703 257.447 155.857 257.51 156.02 257.52C156.138 257.533 156.257 257.518 156.368 257.476C156.479 257.434 156.579 257.367 156.66 257.28C157.52 256.39 162.85 253.3 166.53 254.49Z" fill="#FAFAFA"/>
<path d="M173.58 261.42C173.51 260.94 172.58 260.22 171.79 260.02C166.64 259.67 162.29 263.59 161.44 264.89C161.388 264.971 161.352 265.061 161.336 265.156C161.32 265.251 161.323 265.348 161.346 265.441C161.368 265.535 161.409 265.623 161.467 265.7C161.524 265.777 161.597 265.842 161.68 265.89C161.821 265.974 161.986 266.013 162.15 266C162.267 265.991 162.381 265.956 162.483 265.897C162.585 265.838 162.673 265.757 162.74 265.66C163.5 264.51 168.7 260.12 173.58 261.42Z" fill="#FAFAFA"/>
<path d="M158.7 262C158.818 261.995 158.933 261.964 159.038 261.911C159.144 261.857 159.236 261.782 159.31 261.69C160.06 260.64 164.58 256.69 169.23 257.88C169.23 257.47 168.41 256.66 167.99 256.55C163.38 256.13 158.92 259.62 157.99 260.85C157.883 261.008 157.842 261.202 157.878 261.389C157.914 261.577 158.022 261.743 158.18 261.85C158.331 261.957 158.515 262.01 158.7 262Z" fill="#FAFAFA"/>
<path d="M105.66 251.11C101.46 250.77 99.57 251.11 100.04 255.59C100.51 260.07 100.56 263.52 100.56 263.52C100.56 263.52 108.05 264.05 111.62 262.25C115.19 260.45 112 251.63 105.66 251.11Z" fill="#6275CE"/>
<path opacity="0.5" d="M105.66 251.11C101.46 250.77 99.57 251.11 100.04 255.59C100.51 260.07 100.56 263.52 100.56 263.52C100.56 263.52 108.05 264.05 111.62 262.25C115.19 260.45 112 251.63 105.66 251.11Z" fill="black"/>
<path d="M105.53 270.28C105.254 270.268 104.979 270.231 104.71 270.17C104.167 270.04 103.655 269.804 103.203 269.475C102.752 269.146 102.37 268.732 102.079 268.255C101.788 267.779 101.594 267.249 101.509 266.697C101.423 266.146 101.447 265.582 101.58 265.04C102.9 259.55 104.16 255.33 105.27 251.59C106.944 246.418 108.221 241.126 109.09 235.76C110.237 227.412 108.785 218.913 104.93 211.42C104.483 210.437 104.427 209.321 104.773 208.298C105.12 207.275 105.842 206.423 106.795 205.914C107.747 205.404 108.857 205.277 109.9 205.557C110.943 205.836 111.84 206.503 112.41 207.42C117.13 216.515 118.905 226.852 117.49 237C116.567 242.763 115.203 248.446 113.41 254C112.33 257.63 111.11 261.74 109.84 267C109.615 267.963 109.062 268.817 108.275 269.416C107.488 270.014 106.518 270.32 105.53 270.28V270.28Z" fill="#455A64"/>
<path d="M95.1398 275.59C94.8952 276.397 94.8505 277.252 95.0098 278.08C95.5498 279.2 98.7498 280.69 100.44 281.47C102.782 282.494 104.642 284.376 105.64 286.73C107.42 290.31 110.82 292.83 114.64 294.48C119.806 296.542 125.476 296.984 130.9 295.75C137.65 294.37 138.1 290.35 138.1 290.35C138.1 290.35 138.36 286.58 136.66 286.03C134.96 285.48 95.1398 275.59 95.1398 275.59Z" fill="#455A64"/>
<path d="M98.42 261.68C98.1621 262.86 97.828 264.023 97.42 265.16C96.32 268.29 94.6 271.48 95.09 275.59C96.09 277.59 98.36 278.43 100.09 279.27C102.36 280.39 103.99 281.14 105.56 283.21C108.38 286.92 111.02 291.58 119.95 293.12C128.88 294.66 135.55 291.67 137.13 289.12C138.71 286.57 137.13 284.21 131.38 281.28C128.45 279.79 121.87 273.9 121.12 273.13C118.987 270.716 117.598 267.736 117.12 264.55C116.954 262.262 117.16 259.962 117.73 257.74C117.86 257.23 118.14 256.74 117.94 256.21C117.42 254.93 115.44 255.21 114.35 255.21C112.714 255.305 111.086 255.515 109.48 255.84C108.948 255.88 108.438 256.071 108.01 256.39C107.668 256.773 107.431 257.238 107.32 257.74C107.09 258.48 106.84 259.22 106.56 259.95C106.429 260.477 106.094 260.93 105.63 261.21C105.377 261.297 105.103 261.304 104.846 261.231C104.588 261.158 104.359 261.007 104.19 260.8C103.86 260.374 103.687 259.848 103.7 259.31C103.713 258.775 103.756 258.24 103.83 257.71C103.902 257.201 103.822 256.683 103.6 256.22C103.05 255.27 101.6 255.06 101.23 254.01C101.155 253.725 101.164 253.423 101.257 253.143C101.349 252.863 101.52 252.615 101.75 252.43C102.211 252.055 102.786 251.848 103.38 251.84C103.966 251.801 104.554 251.801 105.14 251.84L105.5 250.62C104.124 250.359 102.704 250.477 101.39 250.96C100.562 251.273 99.8736 251.873 99.45 252.65C99.0631 253.618 98.9658 254.678 99.17 255.7C99.38 258.1 98.9 259.35 98.42 261.68Z" fill="#6275CE"/>
<path opacity="0.35" d="M98.42 261.68C98.1621 262.86 97.828 264.023 97.42 265.16C96.32 268.29 94.6 271.48 95.09 275.59C96.09 277.59 98.36 278.43 100.09 279.27C102.36 280.39 103.99 281.14 105.56 283.21C108.38 286.92 111.02 291.58 119.95 293.12C128.88 294.66 135.55 291.67 137.13 289.12C138.71 286.57 137.13 284.21 131.38 281.28C128.45 279.79 121.87 273.9 121.12 273.13C118.987 270.716 117.598 267.736 117.12 264.55C116.954 262.262 117.16 259.962 117.73 257.74C117.86 257.23 118.14 256.74 117.94 256.21C117.42 254.93 115.44 255.21 114.35 255.21C112.714 255.305 111.086 255.515 109.48 255.84C108.948 255.88 108.438 256.071 108.01 256.39C107.668 256.773 107.431 257.238 107.32 257.74C107.09 258.48 106.84 259.22 106.56 259.95C106.429 260.477 106.094 260.93 105.63 261.21C105.377 261.297 105.103 261.304 104.846 261.231C104.588 261.158 104.359 261.007 104.19 260.8C103.86 260.374 103.687 259.848 103.7 259.31C103.713 258.775 103.756 258.24 103.83 257.71C103.902 257.201 103.822 256.683 103.6 256.22C103.05 255.27 101.6 255.06 101.23 254.01C101.155 253.725 101.164 253.423 101.257 253.143C101.349 252.863 101.52 252.615 101.75 252.43C102.211 252.055 102.786 251.848 103.38 251.84C103.966 251.801 104.554 251.801 105.14 251.84L105.5 250.62C104.124 250.359 102.704 250.477 101.39 250.96C100.562 251.273 99.8736 251.873 99.45 252.65C99.0631 253.618 98.9658 254.678 99.17 255.7C99.38 258.1 98.9 259.35 98.42 261.68Z" fill="black"/>
<path d="M114.07 291.31C114.145 289.221 114.781 287.19 115.91 285.431C117.04 283.671 118.621 282.248 120.49 281.31C127.1 277.72 131.23 279.82 133.32 281.25C135.8 282.94 139.38 286.52 137.32 289.25C135.1 292.18 131.47 293.64 124.64 293.89C117.81 294.14 114.07 291.31 114.07 291.31Z" fill="#FAFAFA"/>
<path d="M106.16 267.74C106.277 267.758 106.397 267.749 106.51 267.712C106.623 267.676 106.725 267.613 106.81 267.53C107.73 266.61 113.27 263.53 117.29 265.43C117.4 265.27 117.61 264.29 117.13 263.96C115.159 263.437 113.091 263.395 111.1 263.837C109.11 264.279 107.254 265.192 105.69 266.5C105.558 266.633 105.484 266.813 105.484 267C105.484 267.187 105.558 267.367 105.69 267.5C105.813 267.633 105.98 267.718 106.16 267.74Z" fill="#FAFAFA"/>
<path d="M118.83 269.82C118.848 269.532 118.804 269.244 118.701 268.974C118.597 268.705 118.436 268.461 118.23 268.26C113.61 267.4 108.81 270.13 107.74 271.2C107.608 271.333 107.534 271.513 107.534 271.7C107.534 271.887 107.608 272.067 107.74 272.2C107.886 272.337 108.079 272.413 108.28 272.413C108.48 272.413 108.673 272.337 108.82 272.2C109.75 271.33 115.2 268.47 118.83 269.82Z" fill="#FAFAFA"/>
<path d="M125.58 277C125.58 276.52 124.58 275.76 123.85 275.53C118.72 274.96 114.21 278.7 113.3 279.96C113.246 280.039 113.209 280.128 113.191 280.221C113.172 280.315 113.173 280.411 113.193 280.505C113.212 280.598 113.25 280.686 113.305 280.765C113.359 280.843 113.429 280.909 113.51 280.96C113.646 281.051 113.807 281.097 113.97 281.09C114.089 281.085 114.205 281.053 114.311 280.998C114.416 280.943 114.508 280.865 114.58 280.77C115.38 279.7 120.76 275.53 125.58 277Z" fill="#FAFAFA"/>
<path d="M110.68 277C110.8 277.001 110.918 276.975 111.027 276.925C111.136 276.875 111.232 276.801 111.31 276.71C112.11 275.71 116.78 271.93 121.38 273.32C121.43 272.91 120.61 272.08 120.2 271.94C115.61 271.33 111.01 274.63 110.08 275.82C110.023 275.895 109.982 275.981 109.959 276.072C109.936 276.163 109.932 276.258 109.946 276.351C109.96 276.444 109.992 276.534 110.041 276.614C110.089 276.695 110.154 276.765 110.23 276.82C110.356 276.928 110.514 276.991 110.68 277V277Z" fill="#FAFAFA"/>
<path d="M214.06 177.4C210 177.4 204.94 175.97 199.32 172.14C198.657 171.685 198.202 170.986 198.054 170.195C197.907 169.405 198.08 168.588 198.535 167.925C198.99 167.262 199.689 166.807 200.48 166.66C201.27 166.512 202.087 166.685 202.75 167.14C210.31 172.3 215.75 171.7 217.75 170.53C218.227 170.16 218.621 169.694 218.905 169.162C219.19 168.629 219.358 168.042 219.4 167.44C219.88 164.44 218.9 159.62 214.72 154.9C205.88 144.9 194.79 139.79 177.63 137.74C176.834 137.645 176.109 137.237 175.614 136.607C175.119 135.977 174.894 135.176 174.99 134.38C175.085 133.584 175.493 132.859 176.123 132.364C176.753 131.869 177.554 131.645 178.35 131.74C196.87 133.94 209.48 139.85 219.26 150.9C224 156.25 226.26 162.8 225.4 168.42C225.236 169.913 224.739 171.349 223.944 172.624C223.15 173.898 222.078 174.977 220.81 175.78C218.744 176.912 216.414 177.471 214.06 177.4V177.4Z" fill="#455A64"/>
<path d="M175.68 99.58C180.27 95.25 184.32 82.53 182.23 69.17C180.14 55.81 167.8 43.32 162.88 40.61C157.96 37.9 154.5 41.4 155.88 46.39C157.7 53.16 159.97 68.39 147.32 75.12C148.727 81.6308 151.581 87.7416 155.67 93C162.19 100.87 175.68 99.58 175.68 99.58Z" fill="#6275CE"/>
<path opacity="0.75" d="M175.68 99.58C180.27 95.25 184.32 82.53 182.23 69.17C180.14 55.81 167.8 43.32 162.88 40.61C157.96 37.9 154.5 41.4 155.88 46.39C157.7 53.16 159.97 68.39 147.32 75.12C148.727 81.6308 151.581 87.7416 155.67 93C162.19 100.87 175.68 99.58 175.68 99.58Z" fill="white"/>
<path d="M158.52 48.9999C157.422 49.0039 156.33 48.8421 155.28 48.5199C155.126 48.4694 154.998 48.3605 154.923 48.2166C154.848 48.0726 154.833 47.9051 154.88 47.7499C154.905 47.6738 154.945 47.6032 154.997 47.5424C155.049 47.4815 155.113 47.4316 155.184 47.3954C155.256 47.3591 155.334 47.3374 155.414 47.3313C155.493 47.3252 155.574 47.335 155.65 47.3599C159.65 48.6299 165 47.1499 166.35 42.9899C166.374 42.9144 166.413 42.8445 166.465 42.784C166.516 42.7235 166.579 42.6738 166.649 42.6375C166.72 42.6013 166.797 42.5794 166.876 42.5729C166.955 42.5665 167.034 42.5757 167.11 42.5999C167.185 42.6242 167.255 42.6632 167.316 42.7145C167.376 42.7659 167.426 42.8286 167.462 42.8992C167.499 42.9698 167.521 43.0468 167.527 43.1258C167.533 43.2049 167.524 43.2844 167.5 43.3599C166.29 47.1099 162.34 48.9999 158.52 48.9999Z" fill="#6275CE"/>
<path d="M163.07 57.41C160.717 57.3959 158.411 56.7538 156.39 55.55C156.259 55.4657 156.165 55.3345 156.128 55.1832C156.091 55.032 156.113 54.8722 156.189 54.7366C156.266 54.601 156.392 54.5 156.541 54.4541C156.689 54.4083 156.85 54.4211 156.99 54.49C158.325 55.3017 159.809 55.8391 161.354 56.0709C162.899 56.3027 164.475 56.2242 165.99 55.84C171.51 54.51 172.69 51.28 172.94 49.95C172.945 49.8635 172.968 49.7791 173.008 49.7022C173.048 49.6254 173.104 49.558 173.172 49.5044C173.24 49.4509 173.319 49.4125 173.403 49.3917C173.487 49.371 173.575 49.3684 173.66 49.3842C173.745 49.3999 173.826 49.4337 173.897 49.4831C173.968 49.5325 174.028 49.5965 174.073 49.6709C174.117 49.7452 174.145 49.8282 174.155 49.9143C174.165 50.0003 174.156 50.0875 174.13 50.17C173.83 51.73 172.48 55.52 166.27 57.02C165.222 57.2728 164.148 57.4037 163.07 57.41Z" fill="#6275CE"/>
<path d="M169.35 67.93C166.823 67.9602 164.316 67.4697 161.987 66.4891C159.657 65.5084 157.555 64.0586 155.81 62.23C155.696 62.1157 155.633 61.9611 155.633 61.8C155.633 61.6388 155.696 61.4842 155.81 61.37C155.866 61.3125 155.933 61.2668 156.007 61.2357C156.08 61.2045 156.16 61.1884 156.24 61.1884C156.32 61.1884 156.399 61.2045 156.473 61.2357C156.547 61.2668 156.614 61.3125 156.67 61.37C158.3 63.0798 160.266 64.4341 162.445 65.3478C164.624 66.2616 166.968 66.7152 169.33 66.68C177.13 66.68 179.44 63.02 180.43 61.46C180.472 61.3914 180.527 61.3319 180.592 61.2851C180.657 61.2383 180.731 61.205 180.81 61.1873C180.888 61.1695 180.969 61.1677 181.048 61.1819C181.127 61.1961 181.203 61.2261 181.27 61.27C181.406 61.3563 181.503 61.4933 181.538 61.6507C181.574 61.8082 181.546 61.9733 181.46 62.11C180.47 63.72 177.81 67.93 169.35 67.93Z" fill="#6275CE"/>
<path d="M172.53 80.1299C170.123 80.131 167.732 79.7426 165.45 78.9799C159.71 77.0399 155.56 73.7099 153.13 69.0899C153.075 68.9505 153.073 68.7956 153.124 68.6548C153.176 68.5141 153.278 68.3973 153.41 68.3268C153.542 68.2562 153.696 68.237 153.842 68.2726C153.988 68.3082 154.115 68.3963 154.2 68.5199C156.52 72.9299 160.32 75.9699 165.84 77.8299C173.44 80.3899 180.7 77.8299 182.73 75.9699C182.851 75.884 182.999 75.8452 183.147 75.8606C183.294 75.8761 183.431 75.9449 183.532 76.054C183.632 76.1631 183.689 76.3052 183.693 76.4535C183.696 76.6019 183.645 76.7464 183.55 76.8599C182 78.3299 177.74 80.1299 172.53 80.1299Z" fill="#6275CE"/>
<path opacity="0.1" d="M157.19 88.73C168.08 76.3 163.87 56.7299 161.19 51.0899C157.42 43.1899 159.02 39.7199 162.32 40.3399C157.71 38.1999 154.56 41.5999 155.84 46.3399C157.66 53.1099 159.93 68.34 147.28 75.07C148.572 80.9246 151.012 86.4649 154.46 91.3699C155.439 90.5643 156.352 89.6814 157.19 88.73V88.73Z" fill="black"/>
<path d="M185.68 173.35C181.98 164.35 180.14 139.44 180.9 123.08C183.38 122.56 186.41 119.18 185.19 114.81C184.09 110.88 183.02 110.36 179.7 106.12C177.34 103.12 175.7 99.12 173.58 95.84C166.3 84.7 157.05 77.27 143.43 74.06C142.876 73.928 142.355 73.6851 141.898 73.346C141.44 73.0068 141.057 72.5784 140.77 72.0867C140.483 71.5951 140.298 71.0503 140.228 70.4853C140.158 69.9204 140.202 69.3471 140.36 68.8C141.23 65.8 141.97 61.88 141.06 59C139.37 53.68 136.01 53.14 133.79 54.13C131.57 55.12 131.4 57.32 132.07 60.89C132.74 64.46 131.69 65.09 130.5 64.71C129.31 64.33 128.42 57.83 120.11 54.78C111.8 51.73 106.19 55.78 106.33 59.16C106.48 62.91 109.2 63.16 114.97 63.82C117.475 64.0561 119.833 65.1104 121.68 66.82C122.2 67.3652 122.566 68.0397 122.738 68.7734C122.91 69.5072 122.883 70.2737 122.66 70.9936C122.437 71.7135 122.025 72.3607 121.468 72.8682C120.91 73.3756 120.228 73.7249 119.49 73.88C98.3599 78.57 81.9999 96.18 77.3099 119.94C76.5465 124.208 76.0522 128.52 75.8299 132.85V132.85C74.3576 130.349 71.9687 128.519 69.1699 127.75C65.0899 126.75 63.4699 128.7 63.5299 130.52C63.5899 132.34 65.8499 133.21 68.1399 134.16C71.8099 135.68 72.4099 137.09 72.4099 137.09C70.4989 136.796 68.5446 136.993 66.7299 137.66C64.2199 138.77 63.5599 141.48 65.9899 142.52C67.3399 143.09 69.4099 142.06 71.5399 141.52C72.8799 141.21 75.3599 140.71 75.5399 142.32C75.5399 146.09 75.5399 150.02 75.6299 154.07C75.9399 165.48 77.9399 173.29 76.1199 183.64C74.7299 191.48 67.8699 197.64 74.7599 204.15C76.0148 205.321 77.5337 206.171 79.1877 206.629C80.8416 207.087 82.5817 207.139 84.2599 206.78C85.3608 206.58 86.4963 206.814 87.4285 207.433C88.3606 208.052 89.0169 209.008 89.2599 210.1C90.0299 213.35 92.3799 217.31 99.0199 219.1C105.14 220.72 109.02 218.86 111.45 216.59C111.847 216.192 112.32 215.879 112.842 215.671C113.364 215.463 113.923 215.363 114.484 215.378C115.046 215.393 115.599 215.522 116.109 215.758C116.619 215.994 117.075 216.332 117.45 216.75C120 219.8 124.73 223.07 133.28 223.03C141.83 222.99 146.13 219.28 148.28 216.12C148.867 215.211 149.779 214.561 150.829 214.303C151.879 214.044 152.989 214.197 153.93 214.73C157.17 216.65 162.39 218.19 168.93 214.73C173.76 212.15 175.01 207.52 175.13 203.73C175.148 203.145 175.289 202.571 175.544 202.045C175.799 201.518 176.161 201.051 176.609 200.674C177.056 200.296 177.577 200.017 178.139 199.855C178.701 199.692 179.291 199.65 179.87 199.73C181.787 200.126 183.78 199.928 185.582 199.163C187.385 198.399 188.912 197.104 189.96 195.45C194.53 188.49 189 181.46 185.68 173.35Z" fill="#6275CE"/>
<g opacity="0.1">
<path d="M68.1399 134.16C71.8099 135.68 72.4099 137.09 72.4099 137.09C70.4989 136.797 68.5446 136.993 66.7299 137.66C64.2199 138.77 63.5599 141.48 65.9899 142.52C67.3399 143.09 69.4099 142.06 71.5399 141.52C72.8799 141.21 75.3599 140.71 75.5399 142.32C75.5399 146.09 75.5399 150.02 75.6299 154.07C75.9399 165.48 77.9399 173.29 76.1199 183.64C74.7299 191.48 67.8699 197.64 74.7599 204.15C76.1674 205.497 77.9355 206.407 79.8499 206.77C79.6399 206.66 76.4199 201.48 80.2199 194.01C85.5599 183.5 85.2199 176.93 83.8299 155.64C82.1199 129.64 85.3099 118.47 94.7599 100.07C104.45 81.21 119.85 80.3 126.39 75.3C129.95 72.58 128.73 67.65 125.62 64.52C123.01 61.89 118.93 60.82 116.52 60.57C111.26 60.03 106.37 59.11 107.36 56.48C106.713 57.2032 106.357 58.1399 106.36 59.11C106.51 62.86 109.23 63.11 115 63.77C117.505 64.0061 119.863 65.0604 121.71 66.77C122.23 67.3152 122.596 67.9897 122.768 68.7235C122.94 69.4572 122.913 70.2237 122.69 70.9436C122.467 71.6636 122.055 72.3107 121.498 72.8182C120.94 73.3256 120.258 73.6749 119.52 73.83C98.3599 78.57 81.9999 96.18 77.3099 119.94C76.5465 124.208 76.0522 128.52 75.8299 132.85V132.85C74.3576 130.349 71.9687 128.519 69.1699 127.75C65.0899 126.75 63.4699 128.7 63.5299 130.52C63.5899 132.34 65.8499 133.21 68.1399 134.16Z" fill="black"/>
<path d="M94.7199 210.25C92.0399 206.71 89.8699 206.13 86.1399 206.92C86.9011 207.123 87.5923 207.53 88.1387 208.098C88.6851 208.665 89.0659 209.372 89.2399 210.14C90.0099 213.39 92.3599 217.35 98.9999 219.14C103.32 220.29 106.55 219.69 108.91 218.44C99.2999 220.5 97.4099 213.78 94.7199 210.25Z" fill="black"/>
<path d="M140.8 221.81C136.07 222.43 131.64 221.36 126.66 217.71C121.29 213.78 118.66 214.15 115.34 215.48C116.162 215.663 116.9 216.113 117.44 216.76C119.99 219.81 124.72 223.08 133.27 223.04C135.832 223.062 138.378 222.646 140.8 221.81V221.81Z" fill="black"/>
<path d="M134.27 59.3399C134.09 56.1799 136.1 53.7999 138.58 54.8399C137.935 54.2717 137.14 53.9024 136.29 53.7764C135.44 53.6504 134.572 53.7732 133.79 54.1299C131.56 55.1299 131.4 57.3199 132.07 60.8899C132.74 64.4599 131.69 65.0899 130.5 64.7099C130.265 64.5849 130.076 64.3889 129.96 64.1499V64.1499C130.88 66.1499 131.77 68.1499 133.85 67.0699C135.93 65.9899 134.45 62.4899 134.27 59.3399Z" fill="black"/>
</g>
<path opacity="0.2" d="M114.15 131.43C114.527 132.851 115.376 134.101 116.557 134.977C117.738 135.853 119.181 136.302 120.65 136.25C126 136.18 126.59 133.75 128.78 130.43C130.97 127.11 135.68 126.37 139.78 126.3C140.864 126.246 141.918 125.928 142.851 125.372C143.783 124.817 144.566 124.042 145.13 123.115C145.694 122.188 146.023 121.137 146.087 120.054C146.152 118.97 145.95 117.888 145.5 116.9C145.609 117.978 145.412 119.066 144.93 120.037C144.449 121.008 143.704 121.824 142.78 122.39C139.5 124.53 135.14 122.6 130.85 124.65C126.56 126.7 126.19 131.33 123.04 132.8C121.575 133.41 119.971 133.605 118.403 133.363C116.834 133.121 115.363 132.453 114.15 131.43Z" fill="black"/>
<path d="M139.21 128.66C139.041 130.341 138.344 131.925 137.219 133.186C136.094 134.446 134.599 135.318 132.948 135.677C131.297 136.035 129.575 135.862 128.029 135.182C126.482 134.502 125.191 133.349 124.34 131.89C126.46 129.89 127.26 126.49 130.84 124.65C133.67 123.21 135.84 123.87 138.19 123.8C139.033 125.272 139.39 126.973 139.21 128.66Z" fill="#455A64"/>
<path d="M119.75 134C118.103 134.106 116.463 133.699 115.056 132.836C113.649 131.973 112.543 130.696 111.89 129.18C111.826 129.033 111.823 128.866 111.881 128.716C111.939 128.566 112.053 128.446 112.2 128.38C112.273 128.347 112.351 128.329 112.431 128.326C112.511 128.324 112.591 128.338 112.665 128.367C112.74 128.396 112.808 128.439 112.865 128.495C112.923 128.55 112.969 128.617 113 128.69C113.92 130.77 116 133.16 120.81 132.74C123.5 132.51 124.54 130.9 125.81 128.86C126.902 126.855 128.533 125.195 130.52 124.07C132.341 123.173 134.384 122.826 136.4 123.07C138.595 123.401 140.834 122.883 142.66 121.62C143.328 121.188 143.876 120.596 144.255 119.897C144.634 119.198 144.832 118.415 144.83 117.62C144.851 116.7 144.691 115.785 144.358 114.927C144.025 114.069 143.526 113.285 142.89 112.62C142.76 112.524 142.674 112.381 142.65 112.222C142.625 112.063 142.665 111.9 142.76 111.77C142.806 111.705 142.864 111.65 142.931 111.608C142.999 111.566 143.074 111.538 143.152 111.526C143.231 111.514 143.311 111.518 143.388 111.538C143.465 111.557 143.537 111.592 143.6 111.64C144.81 112.52 146.08 115.13 146.04 117.64C146.038 118.632 145.791 119.607 145.319 120.48C144.848 121.352 144.168 122.095 143.34 122.64C141.297 124.051 138.799 124.643 136.34 124.3C134.54 124.053 132.707 124.342 131.07 125.13C129.275 126.156 127.805 127.667 126.83 129.49C125.51 131.49 124.14 133.64 120.83 133.92C120.51 134 120.12 134 119.75 134Z" fill="#455A64"/>
<path d="M137.12 127.79C137.116 128.228 136.982 128.654 136.736 129.015C136.489 129.377 136.141 129.657 135.735 129.82C135.329 129.983 134.884 130.023 134.455 129.933C134.027 129.843 133.635 129.628 133.33 129.315C133.024 129.002 132.818 128.605 132.737 128.175C132.657 127.745 132.706 127.301 132.879 126.899C133.051 126.497 133.339 126.155 133.706 125.916C134.073 125.678 134.502 125.554 134.94 125.56C135.23 125.563 135.516 125.622 135.783 125.736C136.049 125.85 136.291 126.015 136.493 126.222C136.696 126.429 136.855 126.674 136.963 126.944C137.071 127.213 137.124 127.5 137.12 127.79V127.79Z" fill="#F5F5F5"/>
<path opacity="0.2" d="M180.89 123.35L180.36 123.08C179.272 123.007 178.229 122.617 177.36 121.96C176.29 120.96 175.09 117.73 171.67 116.9C168.25 116.07 166.33 117.73 162.53 117.9C158.73 118.07 157.46 115.44 156.7 113.24C156.29 116.97 157.35 119.47 160.05 120.57C163.05 121.79 168.49 119.23 170.81 120.57C173.13 121.91 174.47 124.68 177.36 125C178.555 125.181 179.776 124.937 180.81 124.31C180.86 124 180.88 123.67 180.89 123.35Z" fill="black"/>
<path d="M177.4 122C176.926 123.893 175.749 125.535 174.109 126.593C172.469 127.652 170.488 128.046 168.567 127.698C166.647 127.349 164.931 126.284 163.767 124.717C162.603 123.15 162.079 121.199 162.3 119.26C162.349 118.809 162.44 118.364 162.57 117.93C165.39 117.86 167.96 115.93 171.71 116.93C175 117.81 175.23 120.42 177.4 122Z" fill="#455A64"/>
<path d="M180.81 123.69C179.971 123.65 179.143 123.475 178.36 123.17C176.949 122.545 175.768 121.496 174.98 120.17C174.23 118.849 172.997 117.87 171.54 117.44C169.647 117.012 167.67 117.144 165.85 117.82C163.76 118.41 161.6 119.02 159.03 117.47C157.863 116.772 156.962 115.704 156.471 114.436C155.98 113.168 155.927 111.772 156.32 110.47C156.346 110.395 156.386 110.326 156.439 110.266C156.492 110.207 156.556 110.158 156.628 110.124C156.699 110.09 156.777 110.07 156.856 110.066C156.936 110.062 157.015 110.073 157.09 110.1C157.165 110.127 157.235 110.168 157.294 110.222C157.354 110.276 157.402 110.341 157.437 110.413C157.471 110.486 157.491 110.564 157.495 110.644C157.499 110.724 157.487 110.805 157.46 110.88C157.17 111.917 157.227 113.021 157.622 114.023C158.018 115.025 158.73 115.87 159.65 116.43C161.78 117.71 163.51 117.22 165.52 116.66C167.552 115.907 169.761 115.772 171.87 116.27C173.613 116.771 175.094 117.929 176 119.5C176.667 120.619 177.662 121.506 178.85 122.04C179.513 122.293 180.211 122.438 180.92 122.47C181.079 122.47 181.232 122.529 181.349 122.637C181.465 122.744 181.537 122.892 181.55 123.05C181.554 123.13 181.542 123.209 181.515 123.284C181.488 123.359 181.446 123.428 181.392 123.487C181.338 123.545 181.273 123.593 181.2 123.626C181.128 123.659 181.05 123.677 180.97 123.68L180.81 123.69Z" fill="#455A64"/>
<path d="M174.07 121.55C174.066 121.959 173.94 122.358 173.708 122.695C173.477 123.032 173.15 123.293 172.77 123.444C172.39 123.595 171.973 123.629 171.573 123.542C171.174 123.456 170.809 123.252 170.525 122.957C170.241 122.662 170.052 122.289 169.981 121.887C169.91 121.484 169.961 121.069 170.127 120.695C170.292 120.321 170.566 120.004 170.912 119.786C171.258 119.568 171.661 119.458 172.07 119.47C172.339 119.47 172.606 119.524 172.854 119.63C173.102 119.735 173.326 119.889 173.513 120.084C173.7 120.278 173.846 120.508 173.941 120.76C174.037 121.012 174.081 121.281 174.07 121.55Z" fill="#F5F5F5"/>
<path d="M149.81 138.64C139.42 143.29 130.29 152.48 126.07 162.64C123.47 168.89 124.89 174.08 128.37 175.26C135.25 177.58 142.96 166.86 150.63 163.12C158.3 159.38 164.54 163 168.43 160.49C173.01 157.54 172.34 150.01 169.88 144.64C167.14 138.62 160.21 134 149.81 138.64Z" fill="#455A64"/>
<path d="M168.17 160.61C164.36 147.36 151.92 143.23 139.3 145.23C133.563 149.886 129.026 155.849 126.07 162.62C123.47 168.87 124.89 174.06 128.37 175.24C135.25 177.56 142.96 166.84 150.63 163.1C158.05 159.48 164.26 162.81 168.17 160.61Z" fill="#F28F8F"/>
<path opacity="0.1" d="M160 161.3C147.23 157.87 139 168.84 134.95 168.74C130.9 168.64 128.95 165.11 134.56 156.16C140.17 147.21 152.17 144.76 157.41 147.38C152.18 144.8 145.79 144.21 139.34 145.23C133.603 149.886 129.066 155.849 126.11 162.62C123.51 168.86 124.93 174.06 128.41 175.24C135.29 177.56 143 166.84 150.67 163.1C153.583 161.738 156.789 161.119 160 161.3Z" fill="black"/>
<path d="M164.86 148.62C162.4 149.69 162.43 152.96 160.4 159.91C160.26 160.4 160.12 160.91 159.98 161.31C163.4 161.39 166.29 161.85 168.43 160.47C168.858 160.184 169.251 159.848 169.6 159.47C170.1 154.22 167.46 147.49 164.86 148.62Z" fill="#F5F5F5"/>
<path d="M169.6 159.49C169.657 158.865 169.673 158.237 169.65 157.61C168.948 158.558 167.936 159.23 166.79 159.51C165.482 159.722 164.148 159.722 162.84 159.51C162.84 159.51 163.48 155.45 164.12 151.96C164.54 149.62 165.94 148.6 167.06 149.41C166.37 148.64 165.62 148.29 164.86 148.62C162.4 149.69 162.43 152.96 160.4 159.91C160.26 160.4 160.12 160.91 159.98 161.31C163.4 161.39 166.29 161.85 168.43 160.47C168.857 160.19 169.25 159.861 169.6 159.49V159.49Z" fill="#E0E0E0"/>
<path d="M138.47 157.25C136 158.32 136.04 161.59 134.01 168.54C133.12 171.54 132.36 173.82 131.77 175.42C135.44 174.72 139.29 171.42 143.2 168.25C143.75 163 141.09 156.11 138.47 157.25Z" fill="#F5F5F5"/>
<path d="M143.2 168.24C143.275 167.372 143.275 166.498 143.2 165.63C139.31 168.15 136.97 170.85 136.35 170.51C135.73 170.17 136.27 167.44 136.53 164.44C136.85 160.81 137.3 157.05 139.72 157.31C139.524 157.207 139.308 157.148 139.087 157.138C138.865 157.127 138.645 157.166 138.44 157.25C135.97 158.32 136.01 161.59 133.98 168.54C133.09 171.54 132.33 173.82 131.74 175.42C135.41 174.72 139.26 171.42 143.17 168.25L143.2 168.24Z" fill="#E0E0E0"/>
<path d="M53.7599 202.39C53.4203 202.389 53.0829 202.335 52.7599 202.23C52.3798 202.107 52.0281 201.909 51.7254 201.649C51.4227 201.388 51.1752 201.069 50.9973 200.712C50.8194 200.354 50.7147 199.964 50.6894 199.566C50.6641 199.167 50.7186 198.767 50.8499 198.39C58.9999 174.3 70.8299 164.12 87.3699 155.5C87.7232 155.316 88.1092 155.204 88.5059 155.169C88.9026 155.134 89.3023 155.178 89.6821 155.298C90.0619 155.418 90.4143 155.611 90.7194 155.867C91.0244 156.123 91.276 156.437 91.4599 156.79C91.6437 157.143 91.7562 157.529 91.7909 157.926C91.8256 158.323 91.7817 158.722 91.662 159.102C91.5422 159.482 91.3488 159.834 91.0927 160.139C90.8367 160.445 90.5232 160.696 90.1699 160.88C74.5799 169 64.0999 178.06 56.6399 200.32C56.4356 200.922 56.0481 201.445 55.5317 201.817C55.0153 202.188 54.3958 202.388 53.7599 202.39V202.39Z" fill="#455A64"/>
<path d="M51.6199 196.22C50.3499 199.52 48.4099 200.85 46.5599 202.8C44.7099 204.75 42.7099 205.93 40.7799 208.97C38.8499 212.01 37.9399 217.17 38.5199 219.58C38.8399 220.94 40.7299 220.95 40.8399 219.76C41.2499 215.32 41.9899 211.5 45.0999 209.13C43.8606 211.707 43.0532 214.471 42.7099 217.31C42.4299 221.21 42.9499 225.87 44.5599 226.1C46.1699 226.33 46.1199 224.68 45.8899 222.33C45.6599 219.98 45.4499 213.78 48.5799 209.33C48.5799 209.33 47.4599 215.87 48.5799 220.05C49.6999 224.23 51.8599 227.21 53.0599 226.7C54.2599 226.19 54.1999 225.39 52.8999 222.18C51.8999 219.69 51.8999 216.53 52.1999 213.85C52.2624 211.408 53.232 209.076 54.9199 207.31C55.5514 206.628 56.3465 206.119 57.2299 205.83C57.7278 205.767 58.2336 205.815 58.7108 205.971C59.188 206.126 59.6248 206.386 59.9899 206.73C61.3394 207.978 62.2007 209.665 62.4199 211.49C62.6999 213.59 66.1699 213.78 64.8799 207.88C63.5899 201.98 56.3199 200.94 58.1399 196.12L51.6199 196.22Z" fill="#455A64"/>
<path d="M202.67 174.13L205.44 168.77C201.14 166.53 206.06 159.94 203.57 154.43C201.08 148.92 198.42 151.14 199.44 152.99C199.934 153.764 200.268 154.629 200.421 155.534C200.574 156.44 200.543 157.367 200.33 158.26C199.91 159.73 198.96 160.59 197.95 159.72C196.94 158.85 196.29 155.99 192.58 152.84C190.38 150.823 187.558 149.616 184.58 149.42C181.68 149.42 182.7 151.42 184.09 151.99C190.09 154.39 190.83 155.73 192.33 157.69C193.83 159.65 193.64 160.77 192.86 160.54C192.08 160.31 190.86 158.61 187.24 156.93C183.62 155.25 179.53 155.26 178.9 156.03C178.27 156.8 178.34 157.79 180.08 158.2C182.639 158.735 185.127 159.57 187.49 160.69C190.04 162.16 191.2 164.06 190.78 164.61C190.36 165.16 188.18 163.61 184.86 163.01C181.54 162.41 179.86 162.4 178.46 162.94C177.46 163.33 177.81 165.38 180.85 165.53C183.936 165.785 186.922 166.754 189.57 168.36C191.154 169.507 192.849 170.492 194.63 171.3C197.255 172.392 199.939 173.336 202.67 174.13Z" fill="#455A64"/>
<path d="M103.38 93.1699C106.89 95.0099 112.52 104.59 105.62 114.78C103.422 118.249 100.224 120.971 96.4488 122.586C92.6732 124.202 88.4968 124.635 84.4698 123.83C81.6698 122.47 67.0098 116.11 66.2898 95.8299C65.5698 75.5499 77.9998 67.8299 81.1598 65.9999C84.3198 64.1699 90.4998 63.6699 89.7298 70.6099C88.9598 77.5499 88.2298 83.7099 93.2698 88.1699C97.2298 91.6999 103.38 93.1699 103.38 93.1699Z" fill="#6275CE"/>
<path opacity="0.75" d="M103.38 93.1699C106.89 95.0099 112.52 104.59 105.62 114.78C103.422 118.249 100.224 120.971 96.4488 122.586C92.6732 124.202 88.4968 124.635 84.4698 123.83C81.6698 122.47 67.0098 116.11 66.2898 95.8299C65.5698 75.5499 77.9998 67.8299 81.1598 65.9999C84.3198 64.1699 90.4998 63.6699 89.7298 70.6099C88.9598 77.5499 88.2298 83.7099 93.2698 88.1699C97.2298 91.6999 103.38 93.1699 103.38 93.1699Z" fill="white"/>
<path d="M77.1298 119.52C76.6389 119.521 76.1483 119.498 75.6598 119.45C75.4995 119.432 75.3527 119.352 75.2515 119.226C75.1503 119.101 75.103 118.94 75.1198 118.78C75.1374 118.62 75.2178 118.473 75.3433 118.372C75.4689 118.27 75.6294 118.223 75.7898 118.24C78.7898 118.57 88.1298 117.89 94.5598 110.88C101.13 103.71 101.4 96.72 100.46 92.12C100.444 92.0425 100.443 91.9625 100.458 91.8848C100.473 91.8071 100.503 91.7331 100.547 91.6671C100.591 91.6011 100.647 91.5444 100.713 91.5003C100.778 91.4562 100.852 91.4255 100.93 91.41C101.088 91.3774 101.252 91.4085 101.387 91.4965C101.522 91.5846 101.616 91.7224 101.65 91.88C102.65 96.75 102.37 104.15 95.4498 111.7C89.5198 118.17 81.2398 119.52 77.1298 119.52Z" fill="#6275CE"/>
<path d="M73.4098 106.14C71.1872 106.151 68.9692 105.936 66.7898 105.5C66.7123 105.483 66.639 105.451 66.5739 105.405C66.5089 105.36 66.4534 105.302 66.4107 105.235C66.368 105.168 66.3389 105.094 66.325 105.016C66.3111 104.938 66.3128 104.858 66.3298 104.78C66.3469 104.703 66.3791 104.629 66.4245 104.564C66.4699 104.499 66.5277 104.444 66.5946 104.401C66.6614 104.358 66.736 104.329 66.8141 104.315C66.8923 104.301 66.9723 104.303 67.0498 104.32C67.5098 104.42 78.3898 106.78 86.1798 101.55C93.2398 96.82 93.8598 91.11 94.1198 88.67C94.1375 88.5098 94.2178 88.363 94.3434 88.2618C94.4689 88.1606 94.6294 88.1132 94.7898 88.13C94.8694 88.1374 94.9466 88.1608 95.0168 88.1989C95.087 88.2369 95.1488 88.2889 95.1983 88.3515C95.2479 88.4142 95.2842 88.4862 95.3051 88.5633C95.326 88.6404 95.331 88.721 95.3198 88.8C95.0698 91.18 94.3898 97.51 86.8598 102.56C82.5698 105.44 77.4198 106.14 73.4098 106.14Z" fill="#6275CE"/>
<path d="M76.31 89.9999C72.6515 90.1064 69.0422 89.1362 65.93 87.2099C65.8595 87.1688 65.7982 87.1138 65.7497 87.0482C65.7012 86.9825 65.6667 86.9077 65.6481 86.8283C65.6295 86.7488 65.6273 86.6664 65.6417 86.5861C65.656 86.5058 65.6866 86.4293 65.7316 86.3612C65.7765 86.2931 65.8349 86.2349 65.9031 86.1901C65.9713 86.1453 66.0479 86.1149 66.1282 86.1008C66.2086 86.0866 66.291 86.089 66.3704 86.1078C66.4498 86.1265 66.5245 86.1613 66.59 86.2099C68.59 87.5299 73.07 89.5799 80.3 88.4799C86.01 87.6099 88.49 85.7699 90.3 83.9199C90.3558 83.8635 90.4222 83.8185 90.4954 83.7877C90.5685 83.7569 90.6471 83.7408 90.7265 83.7404C90.8059 83.7399 90.8846 83.7551 90.9581 83.785C91.0316 83.815 91.0985 83.8591 91.155 83.9149C91.2115 83.9708 91.2564 84.0371 91.2872 84.1103C91.318 84.1835 91.3341 84.262 91.3346 84.3414C91.335 84.4208 91.3199 84.4995 91.2899 84.573C91.26 84.6466 91.2158 84.7135 91.16 84.7699C89.16 86.7699 86.54 88.7699 80.48 89.6799C79.1001 89.8918 77.7061 89.9987 76.31 89.9999Z" fill="#6275CE"/>
<path d="M82.6798 78.3C81.4438 78.2941 80.2138 78.1294 79.0198 77.81C77.5463 77.4864 76.1618 76.8431 74.9643 75.9256C73.7669 75.008 72.7855 73.8386 72.0898 72.5C72.0536 72.4285 72.0319 72.3505 72.0259 72.2705C72.0199 72.1906 72.0297 72.1102 72.0548 72.034C72.0798 71.9579 72.1197 71.8874 72.172 71.8267C72.2244 71.7659 72.2882 71.7161 72.3598 71.68C72.4306 71.6441 72.5078 71.6225 72.587 71.6166C72.6663 71.6108 72.7458 71.6207 72.8212 71.6458C72.8965 71.6709 72.9662 71.7107 73.026 71.7629C73.0858 71.8152 73.1347 71.8788 73.1698 71.95C73.7818 73.1397 74.6514 74.178 75.7153 74.9893C76.7792 75.8006 78.0105 76.3645 79.3198 76.64C81.0031 77.1129 82.769 77.2148 84.4955 76.9385C86.2221 76.6623 87.868 76.0145 89.3198 75.04C89.3854 74.9939 89.4597 74.9616 89.5382 74.9451C89.6167 74.9286 89.6977 74.9283 89.7764 74.9442C89.855 74.9602 89.9295 74.9919 89.9955 75.0376C90.0614 75.0833 90.1173 75.142 90.1598 75.21C90.2046 75.2761 90.2357 75.3504 90.2514 75.4287C90.2671 75.5069 90.2671 75.5875 90.2512 75.6657C90.2354 75.744 90.2041 75.8182 90.1592 75.8842C90.1143 75.9502 90.0567 76.0066 89.9898 76.05C87.8301 77.5083 85.2856 78.2915 82.6798 78.3V78.3Z" fill="#6275CE"/>
<path opacity="0.1" d="M92.38 116.6C87.96 116.19 82.38 114.94 77.63 107.6C72.88 100.26 71.35 84.95 75.72 75.73C78.6 69.66 84.35 64.1 88.5 65.96C86.65 64.23 83.23 64.85 81.16 66.04C78.04 67.84 65.57 75.59 66.29 95.86C67.01 116.13 81.67 122.48 84.47 123.86C88.4969 124.665 92.6734 124.232 96.449 122.616C100.225 121.001 103.422 118.279 105.62 114.81C110.24 107.99 109.24 101.44 107.03 97.3C110.49 108.14 99 117.2 92.38 116.6Z" fill="black"/>
<path d="M101.46 114.5C101.46 114.5 96.2398 120.25 96.1998 125.77C96.1689 126.479 96.2819 127.188 96.532 127.852C96.7821 128.517 97.1642 129.124 97.6552 129.637C98.1463 130.15 98.736 130.558 99.3891 130.837C100.042 131.116 100.745 131.259 101.455 131.259C102.165 131.259 102.868 131.116 103.521 130.837C104.174 130.558 104.763 130.15 105.254 129.637C105.745 129.124 106.128 128.517 106.378 127.852C106.628 127.188 106.741 126.479 106.71 125.77C106.67 120.25 101.46 114.5 101.46 114.5Z" fill="#FAFAFA"/>
<path d="M280 22.6899L215.54 59.8799C215.185 60.1086 214.89 60.4182 214.677 60.7832C214.465 61.1483 214.343 61.5584 214.32 61.98V102.52C214.344 102.94 214.467 103.348 214.679 103.712C214.891 104.075 215.186 104.383 215.54 104.61L219.89 107.04C220.267 107.23 220.683 107.329 221.105 107.329C221.527 107.329 221.943 107.23 222.32 107.04L286.81 69.86C287.162 69.629 287.455 69.3187 287.665 68.9539C287.875 68.5892 287.997 68.1803 288.02 67.76V27.2099C287.996 26.7899 287.874 26.3815 287.661 26.0182C287.449 25.6549 287.154 25.347 286.8 25.1199L282.45 22.68C282.069 22.4906 281.649 22.3929 281.224 22.3947C280.799 22.3964 280.379 22.4975 280 22.6899V22.6899Z" fill="#6275CE"/>
<path d="M221.11 106.33V65.7899C221.133 65.3696 221.255 64.9606 221.465 64.5959C221.675 64.2312 221.968 63.9208 222.32 63.6899L286.81 26.5099C287.48 26.1199 288.02 26.4399 288.02 27.2099V67.7499C287.997 68.1702 287.875 68.5791 287.665 68.9439C287.455 69.3086 287.162 69.6189 286.81 69.8499L222.32 107C221.65 107.42 221.11 107.1 221.11 106.33Z" fill="#6275CE"/>
<path opacity="0.2" d="M222.32 107C221.944 107.192 221.527 107.292 221.105 107.292C220.683 107.292 220.266 107.192 219.89 107L215.54 104.55C215.186 104.326 214.89 104.02 214.678 103.658C214.465 103.296 214.343 102.889 214.32 102.47V62C214.336 61.559 214.47 61.1305 214.71 60.76L221.47 64.62C221.245 64.9772 221.121 65.3882 221.11 65.81V106.35C221.11 107 221.61 107.45 222.32 107Z" fill="black"/>
<path opacity="0.4" d="M288 26.9999C287.91 26.3899 287.41 26.1699 286.8 26.5199L222.33 63.6999C221.972 63.9261 221.676 64.2391 221.47 64.6099L214.7 60.7499C214.902 60.3964 215.191 60.1004 215.54 59.8899L280 22.6899C280.378 22.5023 280.794 22.4047 281.215 22.4047C281.637 22.4047 282.053 22.5023 282.43 22.6899L286.78 25.1299C287.106 25.3351 287.384 25.6085 287.595 25.9313C287.806 26.2541 287.944 26.6187 288 26.9999Z" fill="white"/>
<path d="M214.32 76.38L204.56 86.31C204.448 86.424 204.363 86.5614 204.311 86.7123C204.259 86.8632 204.24 87.0238 204.258 87.1826C204.275 87.3413 204.327 87.4943 204.41 87.6305C204.494 87.7666 204.606 87.8826 204.74 87.97C204.94 88.11 211.5 91.86 211.5 91.86L221.11 80.29L214.32 76.38Z" fill="#6275CE"/>
<path opacity="0.1" d="M214.32 76.38L204.56 86.31C204.448 86.424 204.363 86.5614 204.311 86.7123C204.259 86.8632 204.24 87.0238 204.258 87.1826C204.275 87.3413 204.327 87.4943 204.41 87.6305C204.494 87.7666 204.606 87.8826 204.74 87.97C204.94 88.11 211.5 91.86 211.5 91.86L221.11 80.29L214.32 76.38Z" fill="black"/>
<path d="M221.11 80.2899L211.35 90.2199C211.195 90.3813 211.093 90.587 211.06 90.8085C211.027 91.0301 211.063 91.2566 211.164 91.4566C211.265 91.6565 211.426 91.8201 211.624 91.9246C211.822 92.0292 212.048 92.0694 212.27 92.0399L221.11 90.7599C222.06 90.7599 222.06 80.2899 221.11 80.2899Z" fill="#6275CE"/>
<path d="M229 76.9999C229.044 75.8473 229.202 74.7017 229.47 73.5799C229.74 72.462 230.136 71.3784 230.65 70.3499C231.152 69.3434 231.777 68.4029 232.51 67.5499C233.221 66.7108 234.074 66.0033 235.03 65.4599C235.779 64.9701 236.646 64.6904 237.54 64.6499C238.219 64.6285 238.882 64.8601 239.4 65.2999C239.957 65.8034 240.365 66.4503 240.58 67.1699C240.88 68.0976 241.038 69.0651 241.05 70.0399C241.05 70.8699 241.05 71.7599 241.05 72.6899C241.05 73.6199 241.05 74.4999 241.05 75.3299C241.016 76.4801 240.858 77.6233 240.58 78.7399C240.309 79.8638 239.913 80.9539 239.4 81.9899C238.905 83.0006 238.28 83.9419 237.54 84.7899C236.823 85.6167 235.975 86.3194 235.03 86.8699C234.275 87.3574 233.407 87.6431 232.51 87.6999C231.831 87.7214 231.168 87.4897 230.65 87.0499C230.095 86.5327 229.688 85.8769 229.47 85.1499C229.18 84.2233 229.022 83.2606 229 82.2899C229 81.4899 229 80.6299 229 79.6899C229 78.7499 229 77.8799 229 76.9999ZM237.48 77.2399C237.48 76.8799 237.48 76.4799 237.48 76.0299C237.48 75.5799 237.48 75.1399 237.48 74.6799C237.48 74.2199 237.48 73.7899 237.48 73.3699C237.48 72.9499 237.48 72.5799 237.48 72.2499C237.468 71.8263 237.401 71.4061 237.28 70.9999C237.197 70.6905 237.035 70.408 236.81 70.1799C236.611 69.9891 236.346 69.8817 236.07 69.8799C235.713 69.8986 235.368 70.0126 235.07 70.2099C234.695 70.4481 234.358 70.7414 234.07 71.0799C233.776 71.4346 233.528 71.8242 233.33 72.2399C233.129 72.6758 232.975 73.1316 232.87 73.5999C232.759 74.0865 232.689 74.5816 232.66 75.0799C232.66 75.4299 232.66 75.8199 232.66 76.2499C232.66 76.6799 232.66 77.1299 232.66 77.5799C232.66 78.0299 232.66 78.4799 232.66 78.9199C232.66 79.3599 232.66 79.7399 232.66 80.0799C232.646 80.8284 232.882 81.5603 233.33 82.1599C233.72 82.5899 234.33 82.5699 235.12 82.1099C235.915 81.6571 236.537 80.9538 236.89 80.1099C237.26 79.2039 237.464 78.2384 237.49 77.2599L237.48 77.2399Z" fill="#455A64"/>
<path d="M253.18 67.26C253.18 67.55 253.18 67.93 253.18 68.39C253.18 68.85 253.18 69.24 253.18 69.55C253.148 70.5365 253.004 71.5161 252.75 72.47C252.496 73.4378 252.141 74.3763 251.69 75.27C251.248 76.1371 250.7 76.9466 250.06 77.68C249.451 78.3858 248.728 78.9842 247.92 79.45C247.28 79.8573 246.547 80.098 245.79 80.15C245.198 80.1724 244.617 79.9847 244.15 79.62C243.665 79.1987 243.3 78.6573 243.09 78.05C242.813 77.2662 242.671 76.4412 242.67 75.61C242.67 75.32 242.67 74.95 242.67 74.48C242.67 74.01 242.67 73.63 242.67 73.32C242.688 72.3376 242.822 71.3607 243.07 70.41C243.327 69.44 243.689 68.5011 244.15 67.61C244.595 66.7325 245.146 65.913 245.79 65.17C246.395 64.4614 247.115 63.8597 247.92 63.39C248.563 62.9829 249.3 62.7486 250.06 62.71C250.653 62.6971 251.231 62.8877 251.7 63.25C252.192 63.6649 252.559 64.2084 252.76 64.82C253.028 65.6062 253.169 66.4296 253.18 67.26V67.26ZM246.18 73.46C246.162 73.7277 246.201 73.9962 246.294 74.2478C246.387 74.4995 246.532 74.7285 246.72 74.92C247.03 75.17 247.45 75.14 247.96 74.84C248.5 74.5171 248.934 74.0447 249.21 73.48C249.531 72.8351 249.712 72.1297 249.74 71.41C249.74 71.09 249.74 70.75 249.74 70.41C249.74 70.07 249.74 69.71 249.74 69.41C249.754 69.1436 249.714 68.8771 249.623 68.6264C249.532 68.3757 249.391 68.1457 249.21 67.95C249.019 67.8317 248.796 67.7759 248.572 67.7902C248.348 67.8046 248.134 67.8884 247.96 68.03C247.424 68.3535 246.993 68.826 246.72 69.39C246.392 70.036 246.207 70.7457 246.18 71.47C246.18 71.78 246.18 72.12 246.18 72.47C246.18 72.82 246.12 73.18 246.14 73.46H246.18Z" fill="#455A64"/>
<path d="M261.06 71.8699C260.75 72.0528 260.412 72.1845 260.06 72.2599C259.819 72.3119 259.571 72.3119 259.33 72.2599C259.139 72.2091 258.962 72.1169 258.81 71.9899C258.68 71.8763 258.563 71.7489 258.46 71.6099V77.9399C258.459 78.1695 258.405 78.3956 258.3 78.5999C258.224 78.7806 258.1 78.9365 257.94 79.0499L255.5 80.4499C255.45 80.4923 255.386 80.5155 255.32 80.5155C255.254 80.5155 255.19 80.4923 255.14 80.4499C255.081 80.3857 255.036 80.3097 255.009 80.227C254.981 80.1443 254.971 80.0567 254.98 79.9699V60.4099C254.98 60.1835 255.035 59.9603 255.14 59.7599C255.21 59.576 255.336 59.4185 255.5 59.3099L257.85 57.9999C257.9 57.9528 257.966 57.9266 258.035 57.9266C258.104 57.9266 258.17 57.9528 258.22 57.9999C258.331 58.1339 258.385 58.3064 258.37 58.4799V59.1599L258.75 58.3199C258.886 58.0131 259.053 57.7215 259.25 57.4499C259.47 57.1506 259.714 56.8696 259.98 56.6099C260.307 56.3068 260.67 56.0449 261.06 55.8299C261.555 55.5182 262.117 55.3296 262.7 55.2799C262.945 55.2625 263.191 55.2952 263.423 55.376C263.656 55.4568 263.869 55.5841 264.05 55.7499C264.496 56.1855 264.82 56.7302 264.99 57.3299C265.258 58.2422 265.39 59.1892 265.38 60.1399C265.38 60.4299 265.38 60.8299 265.38 61.3299C265.38 61.8299 265.38 62.2399 265.38 62.5499C265.37 63.6476 265.24 64.7409 264.99 65.8099C264.776 66.7318 264.461 67.6272 264.05 68.4799C263.695 69.206 263.241 69.8791 262.7 70.4799C262.23 71.0265 261.676 71.4955 261.06 71.8699ZM261.93 64.1699C261.97 63.614 261.97 63.0559 261.93 62.4999C261.928 61.9514 261.772 61.4145 261.48 60.9499C261.22 60.5766 260.79 60.5766 260.19 60.9499C259.904 61.1091 259.653 61.3232 259.45 61.5799C259.248 61.8425 259.076 62.1277 258.94 62.4299C258.808 62.7341 258.701 63.0485 258.62 63.3699C258.544 63.6988 258.494 64.0332 258.47 64.3699C258.47 64.6799 258.47 65.0399 258.47 65.4299C258.453 65.7631 258.453 66.0968 258.47 66.4299C258.492 66.6945 258.542 66.956 258.62 67.2099C258.69 67.4185 258.798 67.612 258.94 67.7799C259.073 67.9244 259.255 68.0137 259.45 68.0299C259.712 68.0356 259.97 67.9624 260.19 67.8199C260.781 67.4751 261.236 66.9388 261.48 66.2999C261.745 65.619 261.896 64.8996 261.93 64.1699V64.1699Z" fill="#455A64"/>
<path d="M272.92 60.0799C272.92 59.8599 272.87 59.72 272.77 59.66C272.613 59.596 272.437 59.596 272.28 59.66C271.968 59.7367 271.66 59.8336 271.36 59.9499C270.98 60.0899 270.51 60.24 269.94 60.41C269.568 60.5712 269.158 60.623 268.758 60.5592C268.357 60.4955 267.983 60.3188 267.68 60.0499C267.065 59.2499 266.782 58.2434 266.89 57.2399C266.895 56.5372 267.006 55.8392 267.22 55.1699C267.446 54.4691 267.755 53.7977 268.14 53.1699C268.536 52.4978 269.013 51.8765 269.56 51.3199C270.108 50.7578 270.731 50.2732 271.41 49.8799C271.976 49.5306 272.604 49.293 273.26 49.1799C273.752 49.0938 274.257 49.1316 274.73 49.2899C275.143 49.4222 275.497 49.6946 275.73 50.0599C275.974 50.4397 276.109 50.8789 276.12 51.3299C276.136 51.5555 276.087 51.7808 275.98 51.9799C275.9 52.1662 275.768 52.3257 275.6 52.4399L273.3 53.7599C273.16 53.8499 273.05 53.8599 272.97 53.8099L272.67 53.6599C272.525 53.5971 272.367 53.573 272.21 53.5899C271.93 53.6335 271.664 53.7395 271.43 53.8999C271.145 54.0566 270.894 54.2672 270.69 54.5199C270.495 54.7448 270.389 55.0326 270.39 55.3299C270.376 55.4855 270.407 55.642 270.48 55.7799C270.547 55.8599 270.677 55.8799 270.87 55.8399C271.146 55.7758 271.416 55.6923 271.68 55.5899L273.05 55.1299C274.22 54.7499 275.05 54.8699 275.61 55.4799C276.195 56.2532 276.48 57.2127 276.41 58.1799C276.404 58.8851 276.297 59.5857 276.09 60.2599C275.845 61.0018 275.509 61.7105 275.09 62.3699C274.656 63.0969 274.136 63.7685 273.54 64.3699C272.924 64.9827 272.232 65.5137 271.48 65.9499C270.868 66.3314 270.19 66.5928 269.48 66.7199C268.981 66.7995 268.469 66.7407 268 66.5499C267.615 66.3705 267.294 66.0774 267.08 65.7099C266.865 65.3272 266.745 64.8986 266.73 64.4599C266.715 64.2344 266.763 64.0091 266.87 63.8099C266.953 63.6253 267.085 63.4665 267.25 63.3499L269.64 61.9699C269.79 61.8899 269.89 61.8799 269.95 61.9699C270.027 62.0472 270.111 62.1175 270.2 62.1799C270.338 62.2551 270.494 62.2898 270.65 62.2799C270.962 62.2324 271.259 62.1163 271.52 61.9399C271.896 61.7227 272.233 61.4457 272.52 61.1199C272.786 60.8398 272.93 60.4659 272.92 60.0799V60.0799Z" fill="#455A64"/>
<path d="M281.63 52.4999C281.628 52.7261 281.573 52.9487 281.47 53.1499C281.4 53.3339 281.274 53.4913 281.11 53.5999L278.67 54.9999C278.622 55.0464 278.557 55.0723 278.49 55.0723C278.423 55.0723 278.358 55.0464 278.31 54.9999C278.251 54.9357 278.206 54.8597 278.179 54.777C278.151 54.6943 278.141 54.6067 278.15 54.5199V41.6899C278.151 41.4604 278.206 41.2343 278.31 41.0299C278.38 40.8459 278.506 40.6885 278.67 40.5799L281.11 39.1799C281.158 39.1335 281.223 39.1075 281.29 39.1075C281.357 39.1075 281.422 39.1335 281.47 39.1799C281.529 39.2442 281.574 39.3202 281.601 39.4029C281.629 39.4856 281.639 39.5732 281.63 39.6599V52.4999ZM281.63 58.8899C281.63 59.1164 281.576 59.3395 281.47 59.5399C281.4 59.7239 281.274 59.8813 281.11 59.9899L278.67 61.3999C278.621 61.4442 278.556 61.4687 278.49 61.4687C278.424 61.4687 278.36 61.4442 278.31 61.3999C278.251 61.3379 278.206 61.2637 278.178 61.1826C278.151 61.1014 278.141 61.0152 278.15 60.9299V57.9299C278.152 57.7037 278.207 57.4811 278.31 57.2799C278.38 57.0959 278.506 56.9385 278.67 56.8299L281.11 55.4199C281.16 55.3756 281.224 55.3512 281.29 55.3512C281.356 55.3512 281.421 55.3756 281.47 55.4199C281.529 55.4842 281.574 55.5602 281.601 55.6429C281.629 55.7256 281.639 55.8132 281.63 55.8999V58.8899Z" fill="#455A64"/>
</svg>
