<svg width="401" height="439" viewBox="0 0 401 439" fill="none" xmlns="http://www.w3.org/2000/svg">
<path d="M15.7135 4.42876C25.0539 -0.968358 36.5618 -0.968358 45.9022 4.42876L158.003 69.2034C141.893 81.7847 131.017 100.767 129.193 122.331L60.9965 82.9257V326.687C56.1194 325.696 51.0715 325.176 45.9022 325.176C28.9119 325.176 13.2329 330.794 0.619141 340.277V30.5944C0.619141 19.8002 6.37307 9.82587 15.7135 4.42876Z" fill="white"/>
<path d="M247.582 190.739L310.053 226.837L100.105 348.15C113.271 361.746 121.374 380.281 121.374 400.709C121.374 402.396 121.319 404.07 121.21 405.73L385.525 253.002C394.865 247.605 400.619 237.631 400.619 226.837C400.619 216.042 394.865 206.068 385.525 200.671L279.152 139.206C276.216 160.504 264.408 178.967 247.582 190.739Z" fill="white"/>
<path d="M249.676 128.788C249.676 153.818 229.402 174.108 204.393 174.108C179.384 174.108 159.11 153.818 159.11 128.788C159.11 103.759 179.384 83.468 204.393 83.468C229.402 83.468 249.676 103.759 249.676 128.788Z" fill="white"/>
<path d="M91.1852 393.156C91.1852 418.186 70.9113 438.476 45.9022 438.476C20.893 438.476 0.619141 418.186 0.619141 393.156C0.619141 368.126 20.893 347.836 45.9022 347.836C70.9113 347.836 91.1852 368.126 91.1852 393.156Z" fill="white"/>
</svg>
